<svg width="500" height="500" viewBox="0 0 500 500" fill="none" xmlns="http://www.w3.org/2000/svg">
<path d="M113.123 411.693V416H82.1562V411.693H113.123ZM83.6328 356.281V416H78.5879V356.281H83.6328ZM127.191 371.621V416H122.311V371.621H127.191ZM121.449 358.783C121.449 357.854 121.736 357.074 122.311 356.445C122.912 355.789 123.732 355.461 124.771 355.461C125.811 355.461 126.631 355.789 127.232 356.445C127.861 357.074 128.176 357.854 128.176 358.783C128.176 359.686 127.861 360.465 127.232 361.121C126.631 361.75 125.811 362.064 124.771 362.064C123.732 362.064 122.912 361.75 122.311 361.121C121.736 360.465 121.449 359.686 121.449 358.783ZM140.521 353H145.443V407.387L145.115 416H140.521V353ZM176.328 393.4V394.262C176.328 397.57 175.945 400.605 175.18 403.367C174.414 406.129 173.307 408.521 171.857 410.545C170.408 412.541 168.631 414.086 166.525 415.18C164.447 416.273 162.055 416.82 159.348 416.82C156.695 416.82 154.344 416.41 152.293 415.59C150.242 414.742 148.492 413.553 147.043 412.021C145.594 410.463 144.432 408.645 143.557 406.566C142.682 404.461 142.066 402.15 141.711 399.635V388.684C142.121 386.004 142.777 383.57 143.68 381.383C144.582 379.195 145.744 377.309 147.166 375.723C148.615 374.137 150.338 372.92 152.334 372.072C154.357 371.225 156.668 370.801 159.266 370.801C161.973 370.801 164.379 371.334 166.484 372.4C168.617 373.439 170.408 374.957 171.857 376.953C173.307 378.922 174.414 381.301 175.18 384.09C175.945 386.852 176.328 389.955 176.328 393.4ZM171.365 394.262V393.4C171.365 390.803 171.119 388.396 170.627 386.182C170.135 383.967 169.355 382.039 168.289 380.398C167.25 378.73 165.91 377.432 164.27 376.502C162.629 375.572 160.66 375.107 158.363 375.107C156.012 375.107 154.002 375.504 152.334 376.297C150.693 377.062 149.326 378.088 148.232 379.373C147.166 380.631 146.318 382.012 145.689 383.516C145.061 385.02 144.596 386.496 144.295 387.945V400.701C144.76 402.752 145.566 404.68 146.715 406.484C147.863 408.289 149.408 409.752 151.35 410.873C153.291 411.967 155.656 412.514 158.445 412.514C160.688 412.514 162.615 412.049 164.229 411.119C165.869 410.189 167.209 408.904 168.248 407.264C169.314 405.623 170.094 403.695 170.586 401.48C171.105 399.266 171.365 396.859 171.365 394.262ZM192.078 378.963V416H187.197V371.621H191.955L192.078 378.963ZM207.787 371.293L207.664 375.805C207.117 375.723 206.584 375.654 206.064 375.6C205.545 375.545 204.984 375.518 204.383 375.518C202.25 375.518 200.377 375.914 198.764 376.707C197.178 377.473 195.838 378.553 194.744 379.947C193.65 381.314 192.816 382.928 192.242 384.787C191.668 386.619 191.34 388.588 191.258 390.693L189.453 391.391C189.453 388.492 189.754 385.799 190.355 383.311C190.957 380.822 191.873 378.648 193.104 376.789C194.361 374.902 195.934 373.439 197.82 372.4C199.734 371.334 201.977 370.801 204.547 370.801C205.176 370.801 205.791 370.855 206.393 370.965C207.021 371.047 207.486 371.156 207.787 371.293ZM231.822 416.82C228.924 416.82 226.258 416.287 223.824 415.221C221.418 414.154 219.312 412.65 217.508 410.709C215.73 408.768 214.35 406.471 213.365 403.818C212.408 401.139 211.93 398.213 211.93 395.041V393.277C211.93 389.859 212.436 386.77 213.447 384.008C214.459 381.246 215.854 378.881 217.631 376.912C219.408 374.943 221.432 373.439 223.701 372.4C225.998 371.334 228.404 370.801 230.92 370.801C233.736 370.801 236.238 371.307 238.426 372.318C240.613 373.303 242.445 374.711 243.922 376.543C245.426 378.348 246.561 380.494 247.326 382.982C248.092 385.443 248.475 388.164 248.475 391.145V394.139H214.883V389.955H243.594V389.381C243.539 386.893 243.033 384.568 242.076 382.408C241.146 380.221 239.752 378.443 237.893 377.076C236.033 375.709 233.709 375.025 230.92 375.025C228.842 375.025 226.928 375.463 225.178 376.338C223.455 377.213 221.965 378.471 220.707 380.111C219.477 381.725 218.52 383.652 217.836 385.895C217.18 388.109 216.852 390.57 216.852 393.277V395.041C216.852 397.502 217.207 399.799 217.918 401.932C218.656 404.037 219.695 405.896 221.035 407.51C222.402 409.123 224.016 410.381 225.875 411.283C227.734 412.186 229.785 412.637 232.027 412.637C234.652 412.637 236.977 412.158 239 411.201C241.023 410.217 242.842 408.672 244.455 406.566L247.531 408.945C246.574 410.367 245.371 411.68 243.922 412.883C242.5 414.086 240.791 415.043 238.795 415.754C236.799 416.465 234.475 416.82 231.822 416.82ZM264.348 356.281V416H259.303V356.281H264.348ZM292.156 383.762V388.109H262.666V383.762H292.156ZM296.299 356.281V360.629H262.666V356.281H296.299ZM310.859 353V416H305.979V353H310.859ZM321.564 394.508V393.154C321.564 389.928 322.029 386.947 322.959 384.213C323.889 381.479 325.215 379.113 326.938 377.117C328.688 375.121 330.779 373.576 333.213 372.482C335.646 371.361 338.354 370.801 341.334 370.801C344.342 370.801 347.062 371.361 349.496 372.482C351.93 373.576 354.021 375.121 355.771 377.117C357.521 379.113 358.861 381.479 359.791 384.213C360.721 386.947 361.186 389.928 361.186 393.154V394.508C361.186 397.734 360.721 400.715 359.791 403.449C358.861 406.156 357.521 408.508 355.771 410.504C354.049 412.5 351.971 414.059 349.537 415.18C347.104 416.273 344.396 416.82 341.416 416.82C338.408 416.82 335.688 416.273 333.254 415.18C330.82 414.059 328.729 412.5 326.979 410.504C325.229 408.508 323.889 406.156 322.959 403.449C322.029 400.715 321.564 397.734 321.564 394.508ZM326.445 393.154V394.508C326.445 396.941 326.773 399.252 327.43 401.439C328.086 403.6 329.043 405.527 330.301 407.223C331.559 408.891 333.117 410.203 334.977 411.16C336.836 412.117 338.982 412.596 341.416 412.596C343.822 412.596 345.941 412.117 347.773 411.16C349.633 410.203 351.191 408.891 352.449 407.223C353.707 405.527 354.65 403.6 355.279 401.439C355.936 399.252 356.264 396.941 356.264 394.508V393.154C356.264 390.748 355.936 388.465 355.279 386.305C354.65 384.145 353.693 382.217 352.408 380.521C351.15 378.826 349.592 377.486 347.732 376.502C345.873 375.518 343.74 375.025 341.334 375.025C338.928 375.025 336.795 375.518 334.936 376.502C333.104 377.486 331.545 378.826 330.26 380.521C329.002 382.217 328.045 384.145 327.389 386.305C326.76 388.465 326.445 390.748 326.445 393.154ZM383.662 405.623L394.367 371.621H397.812L395.762 380.768L384.564 416H381.119L383.662 405.623ZM372.547 371.621L381.939 405.828L383.949 416H380.381L367.502 371.621H372.547ZM411.143 405.705L420.289 371.621H425.334L412.455 416H408.928L411.143 405.705ZM398.51 371.621L409.051 405.336L411.717 416H408.271L396.828 380.727L394.9 371.621H398.51Z" fill="#333333"/>
<path d="M67 252.5C67 252.5 146.5 173 206 200.5C265.5 228 247.5 227 310.5 252.5C373.5 278 411 218.5 411 218.5" stroke="#333333" stroke-width="10" stroke-linecap="round"/>
<path d="M77.5 209.783C77.5 209.783 157 130.283 216.5 157.783C276 185.283 258 184.283 321 209.783C384 235.283 421.5 175.783 421.5 175.783" stroke="#333333" stroke-width="10" stroke-linecap="round"/>
<path d="M88.5 167.783C88.5 167.783 168 88.2835 227.5 115.783C287 143.283 269 142.283 332 167.783C395 193.283 432.5 133.783 432.5 133.783" stroke="#333333" stroke-width="10" stroke-linecap="round"/>
</svg>
